<svg width="40" height="40" viewBox="0 0 40 40" fill="none" xmlns="http://www.w3.org/2000/svg">
<circle cx="20" cy="20" r="19" stroke="black" stroke-width="2"/>
<path d="M21.875 29H18.4766V16.3203H21.875V29ZM18.2773 13.0391C18.2773 12.5312 18.4453 12.1133 18.7812 11.7852C19.125 11.457 19.5898 11.293 20.1758 11.293C20.7539 11.293 21.2148 11.457 21.5586 11.7852C21.9023 12.1133 22.0742 12.5312 22.0742 13.0391C22.0742 13.5547 21.8984 13.9766 21.5469 14.3047C21.2031 14.6328 20.7461 14.7969 20.1758 14.7969C19.6055 14.7969 19.1445 14.6328 18.793 14.3047C18.4492 13.9766 18.2773 13.5547 18.2773 13.0391Z" fill="black"/>
</svg>
